<mxfile host="app.diagrams.net" modified="2024-07-18T09:24:21.049Z" agent="Mozilla/5.0 (Windows NT 10.0; Win64; x64) AppleWebKit/537.36 (KHTML, like Gecko) Chrome/126.0.0.0 Safari/537.36" etag="M009KfEZ6ZnQaex57dfx" version="24.7.1" type="device">
  <diagram name="Page-1" id="FxJV5j-vC3UM02w5vtc5">
    <mxGraphModel dx="792" dy="1139" grid="1" gridSize="10" guides="1" tooltips="1" connect="1" arrows="1" fold="1" page="1" pageScale="1" pageWidth="850" pageHeight="1100" math="0" shadow="0">
      <root>
        <mxCell id="0" />
        <mxCell id="1" parent="0" />
        <mxCell id="7icCALsEy1Q407yA97QI-3" value="Non Flowering" style="rounded=1;whiteSpace=wrap;html=1;" vertex="1" parent="1">
          <mxGeometry x="540" y="550" width="95" height="40" as="geometry" />
        </mxCell>
        <mxCell id="7icCALsEy1Q407yA97QI-9" value="Moss" style="rounded=1;whiteSpace=wrap;html=1;" vertex="1" parent="1">
          <mxGeometry x="635" y="650" width="95" height="40" as="geometry" />
        </mxCell>
        <mxCell id="7icCALsEy1Q407yA97QI-10" value="Plant" style="rounded=1;whiteSpace=wrap;html=1;" vertex="1" parent="1">
          <mxGeometry x="400" y="460" width="95" height="40" as="geometry" />
        </mxCell>
        <mxCell id="7icCALsEy1Q407yA97QI-11" value="Flowering" style="rounded=1;whiteSpace=wrap;html=1;" vertex="1" parent="1">
          <mxGeometry x="265" y="550" width="95" height="40" as="geometry" />
        </mxCell>
        <mxCell id="7icCALsEy1Q407yA97QI-12" value="Grass" style="rounded=1;whiteSpace=wrap;html=1;" vertex="1" parent="1">
          <mxGeometry x="315" y="650" width="95" height="40" as="geometry" />
        </mxCell>
        <mxCell id="7icCALsEy1Q407yA97QI-13" value="Rose" style="rounded=1;whiteSpace=wrap;html=1;" vertex="1" parent="1">
          <mxGeometry x="170" y="650" width="95" height="40" as="geometry" />
        </mxCell>
        <mxCell id="7icCALsEy1Q407yA97QI-14" value="Fungi" style="rounded=1;whiteSpace=wrap;html=1;" vertex="1" parent="1">
          <mxGeometry x="480" y="650" width="95" height="40" as="geometry" />
        </mxCell>
        <mxCell id="7icCALsEy1Q407yA97QI-16" value="" style="endArrow=none;html=1;rounded=0;entryX=0;entryY=1;entryDx=0;entryDy=0;exitX=1;exitY=0;exitDx=0;exitDy=0;" edge="1" parent="1" source="7icCALsEy1Q407yA97QI-11" target="7icCALsEy1Q407yA97QI-10">
          <mxGeometry width="50" height="50" relative="1" as="geometry">
            <mxPoint x="380" y="610" as="sourcePoint" />
            <mxPoint x="430" y="560" as="targetPoint" />
          </mxGeometry>
        </mxCell>
        <mxCell id="7icCALsEy1Q407yA97QI-17" value="" style="endArrow=none;html=1;rounded=0;entryX=0;entryY=0;entryDx=0;entryDy=0;exitX=1;exitY=1;exitDx=0;exitDy=0;" edge="1" parent="1" source="7icCALsEy1Q407yA97QI-10" target="7icCALsEy1Q407yA97QI-3">
          <mxGeometry width="50" height="50" relative="1" as="geometry">
            <mxPoint x="370" y="560" as="sourcePoint" />
            <mxPoint x="410" y="510" as="targetPoint" />
          </mxGeometry>
        </mxCell>
        <mxCell id="7icCALsEy1Q407yA97QI-18" value="" style="endArrow=none;html=1;rounded=0;entryX=0.75;entryY=1;entryDx=0;entryDy=0;exitX=0.411;exitY=-0.075;exitDx=0;exitDy=0;exitPerimeter=0;" edge="1" parent="1" source="7icCALsEy1Q407yA97QI-12" target="7icCALsEy1Q407yA97QI-11">
          <mxGeometry width="50" height="50" relative="1" as="geometry">
            <mxPoint x="380" y="570" as="sourcePoint" />
            <mxPoint x="420" y="520" as="targetPoint" />
          </mxGeometry>
        </mxCell>
        <mxCell id="7icCALsEy1Q407yA97QI-19" value="" style="endArrow=none;html=1;rounded=0;entryX=0.25;entryY=1;entryDx=0;entryDy=0;exitX=0.632;exitY=0;exitDx=0;exitDy=0;exitPerimeter=0;" edge="1" parent="1" source="7icCALsEy1Q407yA97QI-13" target="7icCALsEy1Q407yA97QI-11">
          <mxGeometry width="50" height="50" relative="1" as="geometry">
            <mxPoint x="390" y="580" as="sourcePoint" />
            <mxPoint x="430" y="530" as="targetPoint" />
          </mxGeometry>
        </mxCell>
        <mxCell id="7icCALsEy1Q407yA97QI-20" value="" style="endArrow=none;html=1;rounded=0;entryX=0.905;entryY=1.025;entryDx=0;entryDy=0;exitX=0.25;exitY=0;exitDx=0;exitDy=0;entryPerimeter=0;" edge="1" parent="1" source="7icCALsEy1Q407yA97QI-9" target="7icCALsEy1Q407yA97QI-3">
          <mxGeometry width="50" height="50" relative="1" as="geometry">
            <mxPoint x="400" y="590" as="sourcePoint" />
            <mxPoint x="440" y="540" as="targetPoint" />
          </mxGeometry>
        </mxCell>
        <mxCell id="7icCALsEy1Q407yA97QI-21" value="" style="endArrow=none;html=1;rounded=0;entryX=0.116;entryY=1.075;entryDx=0;entryDy=0;exitX=0.5;exitY=0;exitDx=0;exitDy=0;entryPerimeter=0;" edge="1" parent="1" source="7icCALsEy1Q407yA97QI-14" target="7icCALsEy1Q407yA97QI-3">
          <mxGeometry width="50" height="50" relative="1" as="geometry">
            <mxPoint x="410" y="600" as="sourcePoint" />
            <mxPoint x="450" y="550" as="targetPoint" />
          </mxGeometry>
        </mxCell>
      </root>
    </mxGraphModel>
  </diagram>
</mxfile>
